<svg width="200" height="200" viewBox="0 0 13020 9036" fill="none" xmlns="http://www.w3.org/2000/svg">
<path d="M4309.68 6605.05L4145.06 6793.19L4146.08 6794.09L4147.12 6794.98L4309.68 6605.05ZM4590.32 7745.3L4345.7 7693.68L4590.32 7745.3ZM4493.59 8013.67L4712.49 8134.44L4712.78 8133.91L4713.07 8133.38L4493.59 8013.67ZM4326.03 8226.19L4493.1 8412.17L4494.2 8411.18L4495.29 8410.17L4326.03 8226.19ZM4150.29 8341.99L4046.35 8114.62L4150.29 8341.99ZM3944.58 8403.29L3904.97 8156.45L3904.73 8156.49L3904.48 8156.53L3944.58 8403.29ZM3004.59 8388.3L2874.44 8601.75L2876.36 8602.92L2878.3 8604.06L3004.59 8388.3ZM2931.03 8294.31L2689.47 8358.72L2690.33 8361.94L2691.27 8365.14L2931.03 8294.31ZM3319.29 6744V6494H3069.29V6744H3319.29ZM3319.29 8099.5H3069.29V8349.5H3319.29V8099.5ZM3902.35 8066.8L3986.1 8302.35L3902.35 8066.8ZM4008.61 8005.5L3847.18 7814.6L3845.37 7816.14L3843.58 7817.71L4008.61 8005.5ZM4121.68 6971.51L3907.49 7100.42L3907.92 7101.15L3908.36 7101.87L4121.68 6971.51ZM3902.35 6784.87L3827.78 7023.49L3828.92 7023.85L3830.06 7024.19L3902.35 6784.87ZM3162.62 6673.86H3689.83V6173.86H3162.62V6673.86ZM3689.83 6673.86C3812.72 6673.86 3908.09 6685.38 3979.93 6704L4105.41 6220.01C3981.07 6187.77 3841.22 6173.86 3689.83 6173.86V6673.86ZM3979.93 6704C4038.5 6719.19 4092.99 6747.63 4145.06 6793.19L4474.31 6416.9C4366.53 6322.6 4243.01 6255.68 4105.41 6220.01L3979.93 6704ZM4147.12 6794.98C4282.87 6911.17 4371.65 7101.39 4371.65 7416.98H4871.65C4871.65 7006.01 4752.45 6654.95 4472.24 6415.12L4147.12 6794.98ZM4371.65 7416.98C4371.65 7522.6 4362.42 7614.43 4345.7 7693.68L4834.93 7796.91C4859.98 7678.17 4871.65 7551.12 4871.65 7416.98H4371.65ZM4345.7 7693.68C4329.28 7771.49 4304.85 7837.62 4274.12 7893.96L4713.07 8133.38C4769.52 8029.88 4809.57 7917.09 4834.93 7796.91L4345.7 7693.68ZM4274.7 7892.9C4244.46 7947.7 4205.55 7997.32 4156.77 8042.21L4495.29 8410.17C4582.74 8329.72 4655.53 8237.67 4712.49 8134.44L4274.7 7892.9ZM4158.96 8040.21C4123.63 8071.95 4086.21 8096.4 4046.35 8114.62L4254.23 8569.35C4341.52 8529.45 4421.26 8476.7 4493.1 8412.17L4158.96 8040.21ZM4046.35 8114.62C4004.55 8133.73 3957.77 8147.97 3904.97 8156.45L3984.2 8650.13C4078.53 8634.99 4168.89 8608.37 4254.23 8569.35L4046.35 8114.62ZM3904.48 8156.53C3847.85 8165.73 3779.42 8171 3698.01 8171V8671C3800.05 8671 3896.01 8664.46 3984.68 8650.05L3904.48 8156.53ZM3698.01 8171H3170.79V8671H3698.01V8171ZM3170.79 8171C3145.64 8171 3130.2 8169.08 3122.33 8167.53C3114.11 8165.91 3119.17 8165.69 3130.89 8172.55L2878.3 8604.06C2972.12 8658.98 3080.35 8671 3170.79 8671V8171ZM3134.75 8174.86C3139.29 8177.63 3147.22 8183.56 3155.15 8193.7C3163.21 8203.99 3168.19 8214.7 3170.78 8223.47L2691.27 8365.14C2721.54 8467.57 2786.95 8548.41 2874.44 8601.75L3134.75 8174.86ZM3172.59 8229.89C3169.41 8217.96 3164.68 8189.11 3164.68 8136.28H2664.68C2664.68 8212.41 2670.86 8288.92 2689.47 8358.72L3172.59 8229.89ZM3164.68 8136.28V6671.8H2664.68V8136.28H3164.68ZM3164.68 6671.8C3164.68 6659.21 3165.39 6649.79 3166.26 6643.13C3167.13 6636.45 3168.05 6633.32 3168.16 6632.95C3168.25 6632.65 3167.38 6635.6 3164.51 6640.59C3161.57 6645.72 3156.9 6652.35 3150.04 6659.22L2796.48 6305.66C2689.58 6412.57 2664.68 6555.44 2664.68 6671.8H3164.68ZM3150.04 6659.22C3143.17 6666.08 3136.54 6670.75 3131.41 6673.69C3126.42 6676.55 3123.47 6677.43 3123.77 6677.34C3124.14 6677.23 3127.28 6676.31 3133.95 6675.44C3140.61 6674.57 3150.03 6673.86 3162.62 6673.86V6173.86C3046.26 6173.86 2903.39 6198.76 2796.48 6305.66L3150.04 6659.22ZM3069.29 6744V8099.5H3569.29V6744H3069.29ZM3319.29 8349.5H3625.8V7849.5H3319.29V8349.5ZM3625.8 8349.5C3695.99 8349.5 3757.78 8347.66 3807.53 8342.92L3760.13 7845.17C3733.59 7847.7 3690.03 7849.5 3625.8 7849.5V8349.5ZM3807.53 8342.92C3868.65 8337.1 3928.35 8322.89 3986.1 8302.35L3818.6 7831.25C3794.62 7839.77 3775.3 7843.73 3760.13 7845.17L3807.53 8342.92ZM3986.1 8302.35C4054.23 8278.13 4117.85 8242.32 4173.64 8193.29L3843.58 7817.71C3839.43 7821.35 3832.21 7826.41 3818.6 7831.25L3986.1 8302.35ZM4170.04 8196.39C4387.33 8012.64 4461.6 7725.25 4461.6 7414.26H3961.6C3961.6 7662.72 3900.54 7769.49 3847.18 7814.6L4170.04 8196.39ZM4461.6 7414.26C4461.6 7200.11 4430.52 6997.44 4335 6841.15L3908.36 7101.87C3932.73 7141.75 3961.6 7234.24 3961.6 7414.26H4461.6ZM4335.88 6842.59C4253.41 6705.56 4135.33 6594.09 3974.65 6545.55L3830.06 7024.19C3843.75 7028.33 3871.89 7041.28 3907.49 7100.42L4335.88 6842.59ZM3976.92 6546.25C3858.79 6509.34 3726.82 6494 3586.3 6494V6994C3692.8 6994 3771.54 7005.91 3827.78 7023.49L3976.92 6546.25ZM3586.3 6494H3319.29V6994H3586.3V6494ZM5005.92 8396.48L4816.41 8559.54L4817.49 8560.79L4818.59 8562.03L5005.92 8396.48ZM5005.92 6998.75L4822.56 6828.81L4821.43 6830.03L4820.32 6831.26L5005.92 6998.75ZM5274.29 6998.75L5455.43 6826.45L5274.29 6998.75ZM5010 6722.21L4845.38 6910.35L4846.53 6911.36L4847.69 6912.35L5010 6722.21ZM5011.37 6457.92L5178.86 6643.52L5178.98 6643.41L5179.1 6643.3L5011.37 6457.92ZM5272.93 6722.21L5437.56 6910.35L5438.87 6909.2L5440.17 6908.03L5272.93 6722.21ZM5077.42 7154.06V8228.92H5577.42V7154.06H5077.42ZM5077.42 8228.92C5077.42 8237.71 5076.89 8243.89 5076.36 8247.82C5075.83 8251.72 5075.36 8252.92 5075.66 8251.99C5075.97 8251 5077.07 8247.83 5079.64 8243.26C5082.26 8238.61 5086.01 8233.2 5091.09 8227.73L5457.49 8567.95C5551.27 8466.96 5577.42 8339.43 5577.42 8228.92H5077.42ZM5091.09 8227.73C5095.75 8222.72 5104.31 8215.72 5116.37 8210.61C5128.17 8205.6 5137.01 8205.06 5139.42 8205.06V8705.06C5259.76 8705.06 5372.33 8659.67 5457.49 8567.95L5091.09 8227.73ZM5139.42 8205.06C5142.56 8205.06 5152.58 8205.76 5165.63 8211.48C5178.96 8217.33 5188.26 8225.28 5193.25 8230.93L4818.59 8562.03C4902.96 8657.5 5016.98 8705.06 5139.42 8705.06V8205.06ZM5195.42 8233.42C5199.62 8238.3 5202.63 8242.96 5204.66 8246.78C5206.65 8250.52 5207.4 8252.91 5207.52 8253.28C5207.61 8253.6 5207.09 8251.96 5206.55 8247.85C5206.01 8243.73 5205.51 8237.52 5205.51 8228.92H4705.51C4705.51 8337.1 4730.41 8459.58 4816.41 8559.54L5195.42 8233.42ZM5205.51 8228.92V7164.95H4705.51V8228.92H5205.51ZM5205.51 7164.95C5205.51 7155.99 5206.03 7149.61 5206.57 7145.48C5207.1 7141.36 5207.6 7139.99 5207.35 7140.79C5207.09 7141.64 5206.03 7144.85 5203.46 7149.57C5200.84 7154.39 5196.96 7160.22 5191.52 7166.24L4820.32 6831.26C4729.54 6931.85 4705.51 7057.87 4705.51 7164.95H5205.51ZM5189.27 7168.69C5183.55 7174.88 5174.1 7182.29 5161.67 7187.49C5149.64 7192.52 5141.03 7192.9 5139.42 7192.9V6692.9C5021.05 6692.9 4908.13 6736.49 4822.56 6828.81L5189.27 7168.69ZM5139.42 7192.9C5137.77 7192.9 5129.63 7192.51 5118.35 7187.84C5106.75 7183.03 5098.15 7176.31 5093.15 7171.06L5455.43 6826.45C5369.73 6736.35 5257.77 6692.9 5139.42 6692.9V7192.9ZM5093.15 7171.06C5089.12 7166.82 5085.65 7162.2 5082.87 7157.55C5080.12 7152.93 5078.49 7149.03 5077.6 7146.43C5075.88 7141.42 5077.42 7142.8 5077.42 7154.06H5577.42C5577.42 7042.91 5546.77 6922.48 5455.43 6826.45L5093.15 7171.06ZM5143.51 6519.89C5143.39 6519.89 5144.55 6519.88 5146.77 6520.25C5149.02 6520.62 5151.98 6521.31 5155.39 6522.53C5162.78 6525.17 5168.68 6528.95 5172.32 6532.06L4847.69 6912.35C4932.92 6985.11 5035.94 7019.89 5143.51 7019.89V6519.89ZM5174.63 6534.06C5186.09 6544.09 5195.4 6557.32 5200.93 6570.99C5206.01 6583.56 5205.51 6590.54 5205.51 6587.34H4705.51C4705.51 6701.47 4743.77 6821.44 4845.38 6910.35L5174.63 6534.06ZM5205.51 6587.34C5205.51 6590.94 5204.75 6601.25 5199.01 6614.54C5193.15 6628.13 5185.06 6637.92 5178.86 6643.52L4843.88 6272.32C4751.2 6355.96 4705.51 6467.93 4705.51 6587.34H5205.51ZM5179.1 6643.3C5177.7 6644.57 5172.71 6648.53 5164.2 6651.87C5155.57 6655.25 5147.97 6656.15 5143.51 6656.15V6156.15C5029.57 6156.15 4926.24 6197.8 4843.64 6272.53L5179.1 6643.3ZM5143.51 6656.15C5140.35 6656.15 5134.13 6655.55 5126.59 6652.82C5119.07 6650.11 5114.1 6646.67 5111.98 6644.91L5431.15 6260.03C5349.3 6192.15 5250.24 6156.15 5143.51 6156.15V6656.15ZM5111.98 6644.91C5099.09 6634.22 5088.64 6619.88 5082.48 6605C5076.86 6591.43 5077.42 6583.82 5077.42 6587.34H5577.42C5577.42 6471.9 5538.21 6348.81 5431.15 6260.03L5111.98 6644.91ZM5077.42 6587.34C5077.42 6589.52 5077.1 6582.44 5082 6570.31C5087.27 6557.27 5095.84 6545.24 5105.69 6536.38L5440.17 6908.03C5538.3 6819.72 5577.42 6702.15 5577.42 6587.34H5077.42ZM5108.3 6534.06C5111.98 6530.84 5118.37 6526.52 5126.9 6523.38C5135.31 6520.28 5141.55 6519.89 5143.51 6519.89V7019.89C5251.71 7019.89 5353.95 6983.51 5437.56 6910.35L5108.3 6534.06ZM5980.06 7174.49L5743.15 7254.32L5743.85 7256.38L5744.58 7258.43L5980.06 7174.49ZM6281.13 8019.12L6045.65 8103.06L6277.43 8753.32L6515.76 8105.43L6281.13 8019.12ZM6605.36 7137.71L6839.99 7224.02L6840.33 7223.1L6840.66 7222.18L6605.36 7137.71ZM6680.29 6987.86L6871.36 7149.07L6872.58 7147.63L6873.78 7146.16L6680.29 6987.86ZM6911.88 6990.58L6737.61 7169.83L6738.84 7171.02L6740.08 7172.2L6911.88 6990.58ZM6952.75 7158.14L6712.75 7088.14L6711.39 7092.8L6710.21 7097.51L6952.75 7158.14ZM6932.31 7219.45L6702.53 7120.97L6700.51 7125.67L6698.69 7130.45L6932.31 7219.45ZM6906.43 7284.84L6674.91 7190.51L6674.73 7190.94L6674.56 7191.38L6906.43 7284.84ZM6549.51 8170.34L6317.63 8076.87L6317.22 8077.9L6316.82 8078.92L6549.51 8170.34ZM6510 8267.06L6279.39 8170.53L6278.43 8172.83L6277.51 8175.14L6510 8267.06ZM6456.87 8367.87L6252.99 8223.18L6252.53 8223.84L6252.06 8224.5L6456.87 8367.87ZM6384.67 8431.9L6267.38 8211.12L6265.91 8211.9L6264.46 8212.7L6384.67 8431.9ZM6154.44 8419.64L5998.97 8615.42L6002.12 8617.92L6005.36 8620.32L6154.44 8419.64ZM6084.96 8340.62L5861.35 8452.43L5863.48 8456.67L5865.76 8460.83L6084.96 8340.62ZM6010.03 8170.34L5778.26 8264.05L5778.87 8265.54L5779.49 8267.02L6010.03 8170.34ZM5655.83 7294.37L5421.75 7382.15L5422.87 7385.14L5424.07 7388.09L5655.83 7294.37ZM5629.95 7228.98L5395.87 7316.76L5397.45 7320.98L5399.18 7325.14L5629.95 7228.98ZM5608.15 7162.23L5365.06 7220.57L5366.15 7225.13L5367.41 7229.64L5608.15 7162.23ZM5623.14 7028.72L5834.7 7161.93L5835.78 7160.21L5836.84 7158.47L5623.14 7028.72ZM5687.17 6967.42L5810.42 7184.93L5813.13 7183.39L5815.79 7181.79L5687.17 6967.42ZM5902.41 6996.03L5691.94 7130.95L5693.15 7132.84L5694.4 7134.7L5902.41 6996.03ZM5744.58 7258.43L6045.65 8103.06L6516.62 7935.18L6215.55 7090.55L5744.58 7258.43ZM6515.76 8105.43L6839.99 7224.02L6370.73 7051.4L6046.5 7932.81L6515.76 8105.43ZM6840.66 7222.18C6851.09 7193.11 6859.94 7172.58 6866.77 7158.92C6874.13 7144.21 6876.29 7143.23 6871.36 7149.07L6489.22 6826.64C6434.72 6891.23 6397.68 6976.31 6370.06 7053.24L6840.66 7222.18ZM6873.78 7146.16C6858.39 7164.97 6838.89 7178.44 6819.94 7186.06C6811.25 7189.56 6804.08 7191.27 6799.27 7192.1C6796.87 7192.51 6795.03 7192.71 6793.82 7192.8C6793.22 7192.85 6792.76 7192.88 6792.46 7192.89C6792.15 7192.9 6792 7192.9 6792 7192.9V6692.9C6690.55 6692.9 6571.91 6725.52 6486.8 6829.55L6873.78 7146.16ZM6792 7192.9C6787.08 7192.9 6777.17 7191.96 6765 7187.12C6752.65 7182.21 6743.37 7175.42 6737.61 7169.83L7086.15 6811.33C7004.97 6732.41 6901.73 6692.9 6792 6692.9V7192.9ZM6740.08 7172.2C6736.85 7169.15 6729.03 7160.64 6722.29 7145.88C6715.29 7130.58 6712.29 7114.66 6712.29 7100.93H7212.29C7212.29 6982.69 7161.28 6882.37 7083.68 6808.96L6740.08 7172.2ZM6712.29 7100.93C6712.29 7093.11 6713.03 7088.06 6713.3 7086.39C6713.59 7084.67 6713.62 7085.15 6712.75 7088.14L7192.75 7228.14C7203.37 7191.73 7212.29 7148.16 7212.29 7100.93H6712.29ZM6710.21 7097.51C6707.73 7107.43 6705.04 7115.11 6702.53 7120.97L7162.1 7317.93C7175.94 7285.64 7186.87 7252.46 7195.28 7218.78L6710.21 7097.51ZM6698.69 7130.45C6692.27 7147.31 6684.38 7167.27 6674.91 7190.51L7137.95 7379.16C7148.47 7353.36 7157.83 7329.73 7165.94 7308.45L6698.69 7130.45ZM6674.56 7191.38L6317.63 8076.87L6781.38 8263.8L7138.3 7378.3L6674.56 7191.38ZM6316.82 8078.92C6307.76 8101.98 6295.37 8132.36 6279.39 8170.53L6740.61 8363.59C6757.33 8323.65 6771.27 8289.55 6782.19 8261.75L6316.82 8078.92ZM6277.51 8175.14C6267.93 8199.39 6259.17 8214.48 6252.99 8223.18L6660.75 8512.56C6694.53 8464.95 6721.2 8412.84 6742.49 8358.97L6277.51 8175.14ZM6252.06 8224.5C6253.37 8222.64 6255.54 8220.01 6258.64 8217.26C6261.75 8214.51 6264.84 8212.47 6267.38 8211.12L6501.96 8652.68C6566.28 8618.51 6620.21 8570.48 6661.68 8511.24L6252.06 8224.5ZM6264.46 8212.7C6281.87 8203.15 6291.19 8205.06 6281.13 8205.06V8705.06C6352.81 8705.06 6431.16 8691.53 6504.88 8651.1L6264.46 8212.7ZM6281.13 8205.06C6273.14 8205.06 6272.59 8204.13 6277.26 8205.43C6282.47 8206.89 6292.34 8210.64 6303.52 8218.95L6005.36 8620.32C6092.52 8685.07 6192.36 8705.06 6281.13 8705.06V8205.06ZM6309.91 8223.86C6299.32 8215.45 6300.4 8213.55 6304.16 8220.42L5865.76 8460.83C5900.4 8524.01 5947.8 8574.78 5998.97 8615.42L6309.91 8223.86ZM6308.57 8228.82C6298.32 8208.32 6276.39 8159.04 6240.58 8073.65L5779.49 8267.02C5814.52 8350.56 5842.54 8414.8 5861.35 8452.43L6308.57 8228.82ZM6241.8 8076.62L5887.6 7200.66L5424.07 7388.09L5778.26 8264.05L6241.8 8076.62ZM5889.92 7206.59C5880.67 7181.95 5870.94 7157.36 5860.72 7132.83L5399.18 7325.14C5407.13 7344.2 5414.65 7363.21 5421.75 7382.15L5889.92 7206.59ZM5864.03 7141.2C5858.4 7126.18 5853.35 7110.73 5848.9 7094.82L5367.41 7229.64C5375.67 7259.14 5385.15 7288.19 5395.87 7316.76L5864.03 7141.2ZM5851.25 7103.89C5850.68 7101.5 5850.29 7099.65 5850.02 7098.29C5849.76 7096.93 5849.65 7096.18 5849.62 7096.01C5849.6 7095.83 5849.68 7096.37 5849.77 7097.58C5849.86 7098.77 5849.98 7100.83 5849.98 7103.65H5349.98C5349.98 7146.04 5356.8 7186.17 5365.06 7220.57L5851.25 7103.89ZM5849.98 7103.65C5849.98 7131.67 5840.78 7152.26 5834.7 7161.93L5411.58 6895.52C5374.62 6954.23 5349.98 7024.77 5349.98 7103.65H5849.98ZM5836.84 7158.47C5833.31 7164.28 5828.82 7169.93 5823.62 7174.9C5818.47 7179.83 5813.74 7183.05 5810.42 7184.93L5563.92 6749.92C5501.55 6785.26 5448.22 6835.11 5409.44 6898.98L5836.84 7158.47ZM5815.79 7181.79C5810.8 7184.79 5804.24 7187.81 5796.46 7189.96C5788.68 7192.12 5781.51 7192.9 5775.72 7192.9V6692.9C5698.64 6692.9 5624.66 6713.38 5558.54 6753.05L5815.79 7181.79ZM5775.72 7192.9C5784.3 7192.9 5775.19 7194.35 5757.03 7186.73C5735.73 7177.8 5710.38 7159.71 5691.94 7130.95L6112.88 6861.11C6025.06 6724.12 5879.78 6692.9 5775.72 6692.9V7192.9ZM5694.4 7134.7C5694.27 7134.52 5695.83 7136.86 5698.88 7142.71C5701.86 7148.43 5705.69 7156.38 5710.3 7166.96C5719.6 7188.33 5730.6 7217.08 5743.15 7254.32L6216.98 7094.66C6187.62 7007.55 6153.31 6921.68 6110.42 6857.35L5694.4 7134.7ZM7505.94 7790.25V7540.25H7253.24L7255.96 7792.94L7505.94 7790.25ZM7556.35 8013.67L7333.37 8126.73L7334 8127.97L7334.65 8129.21L7556.35 8013.67ZM7688.49 8159.44L7559.87 8373.81L7560.65 8374.28L7561.43 8374.74L7688.49 8159.44ZM7992.29 8193.5L8058.58 8434.55L8060.55 8434L8062.51 8433.43L7992.29 8193.5ZM8099.91 8144.45L8233.41 8355.82L8235.37 8354.58L8237.31 8353.31L8099.91 8144.45ZM8195.27 8072.25L8359.9 8260.39L8195.27 8072.25ZM8308.34 7968.71L8145.64 7778.9L8141.23 7782.68L8137 7786.66L8308.34 7968.71ZM8478.63 8182.6L8693.77 8309.93L8694.33 8308.98L8694.89 8308.03L8478.63 8182.6ZM8358.75 8312.02L8512 8509.54L8512.23 8509.36L8512.46 8509.17L8358.75 8312.02ZM8158.49 8414.19L8078.63 8177.29L8078.23 8177.42L8077.82 8177.56L8158.49 8414.19ZM7174.9 7391.1L7410.9 7473.58L7411.03 7473.23L7411.15 7472.88L7174.9 7391.1ZM7549.54 6994.67L7639.59 7227.88L7640.59 7227.5L7641.59 7227.1L7549.54 6994.67ZM8227.96 7032.81L8099.9 7247.52L8101 7248.18L8102.11 7248.82L8227.96 7032.81ZM8459.56 7749.38L8572.87 7972.23L8574.36 7971.47L8575.84 7970.69L8459.56 7749.38ZM7505.94 7579.1L7257.22 7553.86L7229.3 7829.1H7505.94V7579.1ZM8180.28 7579.1V7829.1H8448.78L8429.65 7561.28L8180.28 7579.1ZM8076.75 7294.37L7893.55 7464.49L7894.81 7465.84L7896.09 7467.18L8076.75 7294.37ZM7613.57 7295.74L7430.46 7125.52L7430.41 7125.57L7430.37 7125.62L7613.57 7295.74ZM8233.41 7540.25H7505.94V8040.25H8233.41V7540.25ZM7255.96 7792.94C7257.21 7909.34 7280.63 8022.7 7333.37 8126.73L7779.32 7900.61C7766.68 7875.67 7756.49 7840.09 7755.93 7787.56L7255.96 7792.94ZM7334.65 8129.21C7386.43 8228.57 7460.38 8314.12 7559.87 8373.81L7817.12 7945.06C7807.62 7939.37 7793.48 7927.74 7778.05 7898.14L7334.65 8129.21ZM7561.43 8374.74C7656.54 8430.87 7761.48 8458.48 7871.04 8458.48V7958.48C7848 7958.48 7831.25 7953.4 7815.56 7944.14L7561.43 8374.74ZM7871.04 8458.48C7934.01 8458.48 7997.17 8451.43 8058.58 8434.55L7926 7952.44C7914.75 7955.54 7897.07 7958.48 7871.04 7958.48V8458.48ZM8062.51 8433.43C8123.2 8415.67 8180.26 8389.39 8233.41 8355.82L7966.41 7933.08C7950.53 7943.11 7935.85 7949.53 7922.06 7953.56L8062.51 8433.43ZM8237.31 8353.31C8280.7 8324.76 8321.67 8293.84 8359.9 8260.39L8030.64 7884.11C8010.74 7901.52 7988.14 7918.74 7962.5 7935.6L8237.31 8353.31ZM8359.9 8260.39C8392.21 8232.12 8432.37 8195.29 8479.68 8150.76L8137 7786.66C8091.67 7829.32 8056.45 7861.52 8030.64 7884.11L8359.9 8260.39ZM8471.04 8158.53C8429.29 8194.31 8390.12 8194.19 8390.08 8194.19V7694.19C8319.2 7694.19 8225.54 7710.42 8145.64 7778.9L8471.04 8158.53ZM8390.08 8194.19C8386.44 8194.19 8376.08 8193.69 8361.75 8188.85C8346.75 8183.77 8331.05 8175.14 8317.07 8162.78L8648.36 7788.28C8569.9 7718.87 8475.82 7694.19 8390.08 7694.19V8194.19ZM8317.07 8162.78C8299.41 8147.15 8285.62 8127.33 8277.16 8106.18C8269.15 8086.14 8268.14 8070.6 8268.14 8064.08H8768.14C8768.14 7970.69 8736.77 7866.48 8648.36 7788.28L8317.07 8162.78ZM8268.14 8064.08C8268.14 8056.16 8268.91 8050.05 8269.63 8046.07C8270.34 8042.12 8271.04 8039.99 8271.09 8039.85C8271.13 8039.71 8270.67 8041.13 8269.24 8044.19C8267.83 8047.24 8265.63 8051.55 8262.37 8057.17L8694.89 8308.03C8732 8244.03 8768.14 8159.84 8768.14 8064.08H8268.14ZM8263.49 8055.27C8257.21 8065.87 8241.29 8086.59 8205.03 8114.86L8512.46 8509.17C8583.38 8453.89 8647.37 8388.33 8693.77 8309.93L8263.49 8055.27ZM8205.5 8114.49C8180.1 8134.2 8140.01 8156.6 8078.63 8177.29L8238.34 8651.09C8338.63 8617.29 8432.04 8571.57 8512 8509.54L8205.5 8114.49ZM8077.82 8177.56C8029.19 8194.14 7965.19 8205.06 7881.94 8205.06V8705.06C8007.58 8705.06 8127.94 8688.73 8239.16 8650.82L8077.82 8177.56ZM7881.94 8205.06C7692.23 8205.06 7578.03 8152.5 7503.91 8076.34L7145.61 8425.08C7336.68 8621.39 7593.93 8705.06 7881.94 8705.06V8205.06ZM7503.91 8076.34C7426.62 7996.94 7375.86 7880.22 7375.86 7696.25H6875.86C6875.86 7979.1 6957.7 8232.02 7145.61 8425.08L7503.91 8076.34ZM7375.86 7696.25C7375.86 7611.41 7388.43 7537.89 7410.9 7473.58L6938.9 7308.61C6895.99 7431.4 6875.86 7561.32 6875.86 7696.25H7375.86ZM7411.15 7472.88C7433.44 7408.47 7463.94 7358.62 7500.79 7319.1L7135.1 6978.12C7046.61 7073.01 6981.75 7184.82 6938.66 7309.32L7411.15 7472.88ZM7500.79 7319.1C7535.88 7281.46 7580.61 7250.66 7639.59 7227.88L7459.48 6761.45C7335 6809.52 7225.34 6881.34 7135.1 6978.12L7500.79 7319.1ZM7641.59 7227.1C7700.4 7203.81 7770.36 7190.17 7854.69 7190.17V6690.17C7715.61 6690.17 7582.13 6712.87 7457.48 6762.23L7641.59 7227.1ZM7854.69 7190.17C7964.2 7190.17 8042.35 7213.19 8099.9 7247.52L8356.03 6818.11C8206.51 6728.92 8035.81 6690.17 7854.69 6690.17V7190.17ZM8102.11 7248.82C8170.49 7288.66 8213.81 7335.17 8241.64 7387.39L8682.93 7152.31C8607.21 7010.18 8494.33 6898.66 8353.82 6816.8L8102.11 7248.82ZM8241.64 7387.39C8275.95 7451.8 8289.93 7510.72 8289.93 7566.83H8789.93C8789.93 7421.33 8752.15 7282.26 8682.93 7152.31L8241.64 7387.39ZM8289.93 7566.83C8289.93 7592.05 8285.99 7593.36 8291.04 7581.89C8293.94 7575.3 8299.5 7565.31 8309.18 7554.58C8319.06 7543.64 8330.85 7534.6 8343.27 7528.07L8575.84 7970.69C8751.19 7878.56 8789.93 7697.92 8789.93 7566.83H8289.93ZM8346.25 7526.54C8346.4 7526.46 8344.47 7527.45 8339.76 7528.94C8335.05 7530.44 8328.06 7532.27 8318.37 7534.02C8298.64 7537.59 8270.86 7540.25 8233.41 7540.25V8040.25C8348.37 8040.25 8468.98 8025.05 8572.87 7972.23L8346.25 7526.54ZM7505.94 7829.1H8180.28V7329.1H7505.94V7829.1ZM8429.65 7561.28C8418.31 7402.52 8372.77 7242.17 8257.41 7121.57L7896.09 7467.18C7900.61 7471.91 7924.1 7501.37 7930.92 7596.91L8429.65 7561.28ZM8259.95 7124.26C8147.67 7003.35 7999.89 6949.01 7842.43 6949.01V7449.01C7879.33 7449.01 7887.76 7458.25 7893.55 7464.49L8259.95 7124.26ZM7842.43 6949.01C7684.41 6949.01 7540.41 7007.25 7430.46 7125.52L7796.67 7465.95C7806.6 7455.26 7815.18 7449.01 7842.43 7449.01V6949.01ZM7430.37 7125.62C7320.9 7243.51 7273.04 7397.97 7257.22 7553.86L7754.67 7604.33C7764.28 7509.56 7788.16 7475.11 7796.76 7465.85L7430.37 7125.62ZM9169.42 7790.25V7540.25H8916.71L8919.43 7792.94L9169.42 7790.25ZM9219.82 8013.67L8996.84 8126.73L8997.47 8127.97L8998.12 8129.21L9219.82 8013.67ZM9351.96 8159.44L9223.34 8373.81L9224.12 8374.28L9224.9 8374.74L9351.96 8159.44ZM9655.76 8193.5L9722.05 8434.55L9724.02 8434L9725.98 8433.43L9655.76 8193.5ZM9763.38 8144.45L9896.88 8355.82L9898.84 8354.58L9900.78 8353.31L9763.38 8144.45ZM9858.74 8072.25L10023.4 8260.39L9858.74 8072.25ZM9971.81 7968.71L9809.12 7778.9L9804.7 7782.68L9800.47 7786.66L9971.81 7968.71ZM10142.1 8182.6L10357.2 8309.93L10357.8 8308.98L10358.4 8308.03L10142.1 8182.6ZM10022.2 8312.02L10175.5 8509.54L10175.7 8509.36L10175.9 8509.17L10022.2 8312.02ZM9821.96 8414.19L9742.1 8177.29L9741.7 8177.42L9741.29 8177.56L9821.96 8414.19ZM8838.38 7391.1L9074.38 7473.58L9074.5 7473.23L9074.62 7472.88L8838.38 7391.1ZM9213.01 6994.67L9303.06 7227.88L9304.06 7227.5L9305.06 7227.1L9213.01 6994.67ZM9891.44 7032.81L9763.37 7247.52L9764.47 7248.18L9765.59 7248.82L9891.44 7032.81ZM10123 7749.38L10236.3 7972.23L10237.8 7971.47L10239.3 7970.69L10123 7749.38ZM9169.42 7579.1L8920.69 7553.86L8892.77 7829.1H9169.42V7579.1ZM9843.76 7579.1V7829.1H10112.2L10093.1 7561.28L9843.76 7579.1ZM9740.22 7294.37L9557.02 7464.49L9558.28 7465.84L9559.56 7467.18L9740.22 7294.37ZM9277.04 7295.74L9093.93 7125.52L9093.88 7125.57L9093.84 7125.62L9277.04 7295.74ZM9896.89 7540.25H9169.42V8040.25H9896.89V7540.25ZM8919.43 7792.94C8920.68 7909.34 8944.1 8022.7 8996.84 8126.73L9442.8 7900.61C9430.15 7875.67 9419.97 7840.09 9419.4 7787.56L8919.43 7792.94ZM8998.12 8129.21C9049.9 8228.57 9123.85 8314.12 9223.34 8373.81L9480.59 7945.06C9471.09 7939.37 9456.95 7927.74 9441.52 7898.14L8998.12 8129.21ZM9224.9 8374.74C9320.01 8430.87 9424.95 8458.48 9534.51 8458.48V7958.48C9511.47 7958.48 9494.72 7953.4 9479.03 7944.14L9224.9 8374.74ZM9534.51 8458.48C9597.48 8458.48 9660.64 8451.43 9722.05 8434.55L9589.47 7952.44C9578.22 7955.54 9560.54 7958.48 9534.51 7958.48V8458.48ZM9725.98 8433.43C9786.67 8415.67 9843.73 8389.39 9896.88 8355.82L9629.88 7933.08C9614 7943.11 9599.32 7949.53 9585.53 7953.56L9725.98 8433.43ZM9900.78 8353.31C9944.18 8324.76 9985.14 8293.84 10023.4 8260.39L9694.12 7884.11C9674.21 7901.52 9651.61 7918.74 9625.98 7935.6L9900.78 8353.31ZM10023.4 8260.39C10055.7 8232.12 10095.8 8195.29 10143.2 8150.76L9800.47 7786.66C9755.15 7829.32 9719.93 7861.52 9694.12 7884.11L10023.4 8260.39ZM10134.5 8158.53C10092.8 8194.31 10053.6 8194.19 10053.6 8194.19V7694.19C9982.68 7694.19 9889.01 7710.42 9809.12 7778.9L10134.5 8158.53ZM10053.6 8194.19C10049.9 8194.19 10039.5 8193.69 10025.2 8188.85C10010.2 8183.77 9994.52 8175.14 9980.54 8162.78L10311.8 7788.28C10233.4 7718.87 10139.3 7694.19 10053.6 7694.19V8194.19ZM9980.54 8162.78C9962.88 8147.15 9949.09 8127.33 9940.63 8106.18C9932.62 8086.14 9931.61 8070.6 9931.61 8064.08H10431.6C10431.6 7970.69 10400.2 7866.48 10311.8 7788.28L9980.54 8162.78ZM9931.61 8064.08C9931.61 8056.16 9932.38 8050.05 9933.1 8046.07C9933.81 8042.12 9934.51 8039.99 9934.56 8039.85C9934.61 8039.71 9934.14 8041.13 9932.72 8044.19C9931.3 8047.24 9929.1 8051.55 9925.84 8057.17L10358.4 8308.03C10395.5 8244.03 10431.6 8159.84 10431.6 8064.08H9931.61ZM9926.96 8055.27C9920.68 8065.87 9904.76 8086.59 9868.5 8114.86L10175.9 8509.17C10246.8 8453.89 10310.8 8388.33 10357.2 8309.93L9926.96 8055.27ZM9868.97 8114.49C9843.57 8134.2 9803.48 8156.6 9742.1 8177.29L9901.81 8651.09C10002.1 8617.29 10095.5 8571.57 10175.5 8509.54L9868.97 8114.49ZM9741.29 8177.56C9692.66 8194.14 9628.66 8205.06 9545.41 8205.06V8705.06C9671.05 8705.06 9791.42 8688.73 9902.63 8650.82L9741.29 8177.56ZM9545.41 8205.06C9355.71 8205.06 9241.51 8152.5 9167.38 8076.34L8809.08 8425.08C9000.15 8621.39 9257.4 8705.06 9545.41 8705.06V8205.06ZM9167.38 8076.34C9090.09 7996.94 9039.33 7880.22 9039.33 7696.25H8539.33C8539.33 7979.1 8621.17 8232.02 8809.08 8425.08L9167.38 8076.34ZM9039.33 7696.25C9039.33 7611.41 9051.9 7537.89 9074.38 7473.58L8602.38 7308.61C8559.46 7431.4 8539.33 7561.32 8539.33 7696.25H9039.33ZM9074.62 7472.88C9096.92 7408.47 9127.42 7358.62 9164.26 7319.1L8798.57 6978.12C8710.08 7073.01 8645.23 7184.82 8602.13 7309.32L9074.62 7472.88ZM9164.26 7319.1C9199.36 7281.46 9244.09 7250.66 9303.06 7227.88L9122.96 6761.45C8998.47 6809.52 8888.81 6881.34 8798.57 6978.12L9164.26 7319.1ZM9305.06 7227.1C9363.87 7203.81 9433.83 7190.17 9518.17 7190.17V6690.17C9379.08 6690.17 9245.6 6712.87 9120.96 6762.23L9305.06 7227.1ZM9518.17 7190.17C9627.67 7190.17 9705.82 7213.19 9763.37 7247.52L10019.5 6818.11C9869.98 6728.92 9699.29 6690.17 9518.17 6690.17V7190.17ZM9765.59 7248.82C9833.96 7288.66 9877.29 7335.17 9905.11 7387.39L10346.4 7152.31C10270.7 7010.18 10157.8 6898.66 10017.3 6816.8L9765.59 7248.82ZM9905.11 7387.39C9939.42 7451.8 9953.4 7510.72 9953.4 7566.83H10453.4C10453.4 7421.33 10415.6 7282.26 10346.4 7152.31L9905.11 7387.39ZM9953.4 7566.83C9953.4 7592.05 9949.46 7593.36 9954.51 7581.89C9957.41 7575.3 9962.97 7565.31 9972.65 7554.58C9982.53 7543.64 9994.32 7534.6 10006.7 7528.07L10239.3 7970.69C10414.7 7878.56 10453.4 7697.92 10453.4 7566.83H9953.4ZM10009.7 7526.54C10009.9 7526.46 10007.9 7527.45 10003.2 7528.94C9998.52 7530.44 9991.53 7532.27 9981.84 7534.02C9962.11 7537.59 9934.33 7540.25 9896.89 7540.25V8040.25C10011.8 8040.25 10132.5 8025.05 10236.3 7972.23L10009.7 7526.54ZM9169.42 7829.1H9843.76V7329.1H9169.42V7829.1ZM10093.1 7561.28C10081.8 7402.52 10036.2 7242.17 9920.88 7121.57L9559.56 7467.18C9564.08 7471.91 9587.57 7501.37 9594.39 7596.91L10093.1 7561.28ZM9923.42 7124.26C9811.14 7003.35 9663.36 6949.01 9505.9 6949.01V7449.01C9542.8 7449.01 9551.23 7458.25 9557.02 7464.49L9923.42 7124.26ZM9505.9 6949.01C9347.88 6949.01 9203.88 7007.25 9093.93 7125.52L9460.14 7465.95C9470.08 7455.26 9478.66 7449.01 9505.9 7449.01V6949.01ZM9093.84 7125.62C8984.37 7243.51 8936.51 7397.97 8920.69 7553.86L9418.14 7604.33C9427.75 7509.56 9451.64 7475.11 9460.24 7465.85L9093.84 7125.62Z" fill="white"/>
<path fill-rule="evenodd" clip-rule="evenodd" d="M4795.5 4530.97C4136.9 4530.97 3603 3997.06 3603 3338.47C3603 2679.87 4136.9 2145.97 4795.5 2145.97L4795.5 1145.97C3584.62 1145.97 2603 2127.58 2603 3338.47C2603 4549.35 3584.62 5530.97 4795.5 5530.97L4795.5 4530.97Z" fill="white"/>
<rect width="2208" height="997" rx="130" transform="matrix(-1 0 0 1 6813.5 1145.97)" fill="white"/>
<rect width="1032" height="997" rx="130" transform="matrix(-1 0 0 1 5637.5 4533.97)" fill="white"/>
<path fill-rule="evenodd" clip-rule="evenodd" d="M8133 4530.97C8791.6 4530.97 9325.5 3997.06 9325.5 3338.47C9325.5 2679.87 8791.6 2145.97 8133 2145.97L8133 1145.97C9343.88 1145.97 10325.5 2127.58 10325.5 3338.47C10325.5 4549.35 9343.88 5530.97 8133 5530.97L8133 4530.97Z" fill="white"/>
<rect x="6115" y="1145.97" width="2208" height="997" rx="130" fill="white"/>
<rect x="7291" y="4533.97" width="1032" height="997" rx="130" fill="white"/>
<circle cx="6464.5" cy="4303.47" r="658.5" fill="white"/>
<circle cx="8016" cy="3337.97" r="307" fill="white"/>
<circle cx="4913" cy="3337.97" r="307" fill="white"/>
<path d="M3779.58 1992.01L3732.58 943.51C3695.2 378.506 3424.44 24.305 4230.08 576.51C4649.79 864.189 4905.03 1311.84 5053.2 1414.51" stroke="white" stroke-width="600"/>
<path d="M9149.56 1992.04L9196.56 943.545C9233.94 378.541 9504.7 24.3396 8699.06 576.545C8279.35 864.223 8024.11 1311.87 7875.94 1414.54" stroke="white" stroke-width="600"/>
</svg>
